mtllib stairs.mtl
g MeshCube
v -49.975338 -1.000289 49.943539
v 49.975338 -1.000289 49.943539
v 49.975338 8.994779 49.943539
v -49.975338 8.994779 49.943539
v 49.975338 8.994779 39.740444
v -49.975338 8.994779 39.740444
v -49.975338 18.989849 29.953407
v 49.975338 18.989849 29.953407
v 49.975338 28.984919 29.953407
v -49.975338 28.984919 29.953407
v 49.975338 28.984919 19.996159
v -49.975338 28.984919 19.996159
v -49.975338 28.984915 19.958336
v 49.975338 28.984915 19.958336
v 49.975338 38.979984 19.958336
v -49.975338 38.979984 19.958336
v 49.975338 38.979984 9.741209
v -49.975338 38.979984 9.741209
v -49.975338 48.975063 -0.031800
v 49.975338 48.975063 -0.031800
v 49.975338 58.970135 -0.031800
v -49.975338 58.970135 -0.031800
v 49.975338 58.970135 -10.013752
v -49.975338 58.970135 -10.013752
v -49.975338 58.970123 -10.026869
v 49.975338 58.970123 -10.026869
v 49.975338 68.965187 -10.026869
v -49.975338 68.965187 -10.026869
v 49.975338 68.965187 -20.268703
v -49.975338 68.965187 -20.268703
v -49.975338 68.965187 -20.021936
v 49.975338 68.965187 -20.021936
v 49.975338 78.960258 -20.021935
v -49.975338 78.960258 -20.021935
v 49.975338 78.960258 -30.145420
v -49.975338 78.960258 -30.145420
v -49.975338 88.955315 -40.012070
v 49.975338 88.955315 -40.012070
v 49.975338 98.950386 -40.012070
v -49.975338 98.950386 -40.012070
v -49.975338 88.955315 -40.014515
v 49.975338 88.955315 -40.014515
v 49.975338 98.950386 -50.007145
v -49.975338 98.950386 -50.007145
v -49.975338 8.994779 39.948471
v 49.975338 8.994779 39.948471
v 49.975338 18.989849 39.948471
v -49.975338 18.989849 39.948471
v 49.975338 18.989849 29.868303
v -49.975338 18.989849 29.868303
v -49.975338 38.979973 9.963270
v 49.975338 38.979973 9.963270
v 49.975338 48.975040 9.963271
v -49.975338 48.975040 9.963271
v 49.975338 48.975040 -0.132458
v -49.975338 48.975040 -0.132458
v -49.975338 78.960258 -30.017008
v 49.975338 78.960258 -30.017008
v 49.975338 88.955330 -30.017008
v -49.975338 88.955330 -30.017008
v 49.975338 88.955330 -40.014515
v -49.975338 88.955330 -40.014515
v -40.627846 -0.879369 49.870293
v -40.677177 99.129501 -49.937626
v -40.677177 98.935234 -39.863495
v -40.627846 9.181827 49.813610
v -50.000004 99.128258 -49.936398
v -50.000004 98.933990 -39.862259
v -49.950672 -0.880605 49.871529
v -49.950672 9.180602 49.814835
v 49.950672 98.370773 -49.961838
v 40.365379 98.369537 -49.960606
v 40.365379 98.990112 -40.023369
v 49.950672 98.991348 -40.024605
v 40.414715 -0.849576 49.944267
v 40.414715 9.185145 50.008442
v 50.000004 -0.848336 49.943027
v 50.000004 9.186372 50.007210
vt 0.000746 0.000499
vt 0.999254 0.000499
vt 0.999254 0.091339
vt 0.000746 0.091339
vt 0.999254 0.001148
vt 0.999254 0.103061
vt 0.000746 0.103061
vt 0.999254 0.001148
vt 0.000746 0.001148
vt 0.000746 0.182178
vt 0.999254 0.182178
vt 0.999254 0.273018
vt 0.000746 0.273018
vt 0.999254 0.200818
vt 0.999254 0.300276
vt 0.000746 0.300276
vt 0.999254 0.200818
vt 0.000746 0.200818
vt 0.000746 0.273018
vt 0.999254 0.273018
vt 0.999254 0.363857
vt 0.000746 0.363857
vt 0.999254 0.300654
vt 0.999254 0.402707
vt 0.000746 0.402707
vt 0.999254 0.300654
vt 0.000746 0.300654
vt 0.000746 0.454697
vt 0.999254 0.454697
vt 0.999254 0.545536
vt 0.000746 0.545536
vt 0.999254 0.500324
vt 0.999254 0.600028
vt 0.000746 0.600029
vt 0.999254 0.500324
vt 0.000746 0.500324
vt 0.000746 0.545536
vt 0.999254 0.545536
vt 0.999254 0.636375
vt 0.000746 0.636375
vt 0.999254 0.600159
vt 0.999254 0.702459
vt 0.000746 0.702460
vt 0.999254 0.600159
vt 0.000746 0.600160
vt 0.000746 0.636375
vt 0.999254 0.636375
vt 0.999254 0.727215
vt 0.000746 0.727215
vt 0.999254 0.699995
vt 0.999254 0.801112
vt 0.000746 0.801113
vt 0.999254 0.699995
vt 0.000746 0.699995
vt 0.000746 0.818054
vt 0.999254 0.818054
vt 0.999254 0.908893
vt 0.000746 0.908893
vt 0.000746 0.899665
vt 0.999254 0.899690
vt 0.000746 0.899689
vt 0.999254 0.899665
vt 0.999254 0.999500
vt 0.000746 0.999501
vt 0.999254 0.899665
vt 0.000746 0.899665
vt 0.000746 0.091339
vt 0.999254 0.091339
vt 0.999254 0.182178
vt 0.000746 0.182178
vt 0.999254 0.100983
vt 0.999254 0.201668
vt 0.000746 0.201669
vt 0.999254 0.100983
vt 0.000746 0.100983
vt 0.000746 0.363857
vt 0.999254 0.363857
vt 0.999254 0.454696
vt 0.000746 0.454696
vt 0.999254 0.400489
vt 0.999254 0.501329
vt 0.000746 0.501330
vt 0.999254 0.400489
vt 0.000746 0.400489
vt 0.000746 0.727215
vt 0.999254 0.727215
vt 0.999254 0.818054
vt 0.000746 0.818054
vt 0.000746 0.799830
vt 0.999254 0.799830
vt 0.999254 0.801113
vt 0.999254 0.799830
vt 0.999254 0.899689
vt 0.000746 0.899690
vt 0.999254 0.799830
vt 0.000746 0.799830
vt 0.001880 0.001598
vt 0.998806 0.910521
vt 0.996347 0.998749
vt 0.002446 0.093039
vt 0.906365 0.910521
vt 0.999501 0.910510
vt 0.999501 0.998738
vt 0.906365 0.910521
vt 0.906365 0.998749
vt 0.000992 0.001587
vt 0.094127 0.001598
vt 0.094127 0.093039
vt 0.094127 0.093039
vt 0.000992 0.093028
vt 0.905873 0.001598
vt 0.999008 0.001587
vt 0.905873 0.001598
vt 0.906365 0.910521
vt 0.094127 0.093039
vt 0.093635 0.998749
vt 0.000499 0.998738
vt 0.094127 0.093039
vt 0.000499 0.998738
vt 0.000992 0.903626
vt 0.096749 0.903614
vt 0.096749 0.999489
vt 0.000992 0.999501
vt 0.000964 0.903614
vt 0.998860 0.001869
vt 0.999501 0.093069
vt 0.000964 0.903614
vt 0.003505 0.999489
vt 0.903743 0.001869
vt 0.999501 0.001880
vt 0.999501 0.093080
vt 0.903743 0.001869
vt 0.903743 0.093069
vt 0.000499 0.001880
vt 0.096257 0.001869
vt 0.000499 0.001880
vt 0.999008 0.999501
vt 0.903251 0.999489
vt 0.903251 0.999489
vt 0.903743 0.093069
vt 0.999254 0.100983
vt 0.999254 0.201668
vt 0.000746 0.201669
vt 0.999254 0.200818
vt 0.999254 0.300276
vt 0.000746 0.300276
vt 0.999254 0.200818
vt 0.999254 0.300276
vt 0.000746 0.300276
vt 0.999254 0.200818
vt 0.999254 0.300276
vt 0.000746 0.300276
vn 0.000000 -0.000000 0.998312
vn 0.000000 -0.000000 0.998312
vn 0.000000 -0.000000 0.998312
vn 0.000000 -0.000000 1.000000
vn 0.000000 0.998312 0.000000
vn 0.000000 0.998312 0.000000
vn 0.000000 0.998312 0.000000
vn 0.000000 1.000000 0.000000
vn 0.000000 1.000000 0.000000
vn 0.000000 -0.000000 0.998312
vn 0.000000 -0.000000 0.998312
vn 0.000000 -0.000000 0.998312
vn 0.000000 -0.000000 1.000000
vn 0.000000 0.998312 0.000000
vn 0.000000 0.998312 0.000000
vn 0.000000 0.998312 0.000000
vn 0.000000 1.000000 0.000000
vn 0.000000 1.000000 0.000000
vn 0.000000 -0.000000 0.998312
vn 0.000000 -0.000000 1.000000
vn 0.000000 -0.000000 0.998312
vn 0.000000 -0.000000 1.000000
vn 0.000000 0.998312 0.000000
vn 0.000000 0.998312 0.000000
vn 0.000000 0.998312 0.000000
vn 0.000000 1.000000 0.000000
vn 0.000000 1.000000 0.000000
vn 0.000000 -0.000000 0.998312
vn 0.000000 -0.000000 1.000000
vn 0.000000 -0.000000 0.998312
vn 0.000000 -0.000000 1.000000
vn 0.000000 0.998312 0.000000
vn 0.000000 0.998312 0.000000
vn 0.000000 0.998312 0.000000
vn 0.000000 1.000000 0.000000
vn 0.000000 1.000000 0.000000
vn 0.000000 -0.000000 0.998312
vn 0.000000 -0.000000 1.000000
vn 0.000000 -0.000000 0.998312
vn 0.000000 -0.000000 1.000000
vn 0.000000 0.998312 0.000000
vn 0.000000 0.998312 0.000000
vn 0.000000 0.998312 0.000000
vn 0.000000 0.998312 0.000000
vn 0.000000 0.998312 0.000000
vn 0.000000 -0.000000 0.998312
vn 0.000000 -0.000000 1.000000
vn 0.000000 -0.000000 0.998312
vn 0.000000 -0.000000 1.000000
vn 0.000000 0.998312 0.000000
vn 0.000000 0.998312 0.000000
vn 0.000000 0.998312 0.000000
vn 0.000000 0.998312 0.000000
vn 0.000000 0.998312 0.000000
vn 0.000000 -0.000000 0.998312
vn 0.000000 -0.000000 1.000000
vn 0.000000 -0.000000 0.998312
vn 0.000000 -0.000000 1.000000
vn 0.000000 -1.000000 -0.000000
vn 0.000000 -1.000000 -0.000000
vn 0.000000 -1.000000 -0.000000
vn 0.000000 0.998312 0.000000
vn 0.000000 0.998312 0.000000
vn 0.000000 0.998312 0.000000
vn 0.000000 1.000000 0.000000
vn 0.000000 1.000000 0.000000
vn 0.000000 -0.000000 0.998312
vn 0.000000 -0.000000 1.000000
vn 0.000000 -0.000000 0.998312
vn 0.000000 -0.000000 1.000000
vn 0.000000 0.998312 0.000000
vn 0.000000 0.998312 0.000000
vn 0.000000 0.998312 0.000000
vn 0.000000 0.998312 0.000000
vn 0.000000 0.998312 0.000000
vn 0.000000 -0.000000 0.998312
vn 0.000000 -0.000000 1.000000
vn 0.000000 -0.000000 0.998312
vn 0.000000 -0.000000 1.000000
vn 0.000000 0.998312 0.000000
vn 0.000000 0.998312 0.000000
vn 0.000000 0.998312 0.000000
vn 0.000000 1.000000 0.000000
vn 0.000000 1.000000 0.000000
vn 0.000000 -0.000000 0.998312
vn 0.000000 -0.000000 1.000000
vn 0.000000 -0.000000 0.998312
vn 0.000000 -0.000000 1.000000
vn 0.000000 -1.000000 -0.000000
vn 0.000000 -1.000000 -0.000000
vn 0.000000 -1.000000 -0.000000
vn 0.000000 0.998312 0.000000
vn 0.000000 0.998312 0.000000
vn 0.000000 0.998312 0.000000
vn 0.000000 1.000000 0.000000
vn 0.000000 1.000000 0.000000
vn 0.998312 0.000250 -0.000271
vn 0.998312 0.000502 0.000010
vn 0.998312 0.000250 -0.000271
vn 0.998312 -0.000003 -0.000552
vn -0.000130 0.998127 0.019248
vn -0.000089 -0.283130 -0.957318
vn -0.000130 0.998127 0.019248
vn -0.000130 0.999814 0.019280
vn -0.000130 0.999814 0.019280
vn 0.000131 0.005625 0.998296
vn 0.000132 0.005624 0.998296
vn 0.000132 0.005624 0.998296
vn 0.000131 0.005625 0.998296
vn 0.000071 0.384437 0.921317
vn -0.000000 -0.705203 -0.706623
vn -0.000000 -0.705203 -0.706623
vn 0.000001 -0.705203 -0.706623
vn 0.000001 -0.705203 -0.706623
vn -0.000000 0.705613 0.706213
vn -0.000000 0.705613 0.706213
vn -0.000000 0.705613 0.706213
vn 0.000001 0.706806 0.707407
vn 0.000001 0.706806 0.707407
vn -0.000178 0.839093 -0.540878
vn -0.000088 -0.274586 -0.959807
vn -0.000137 0.996371 -0.062223
vn -0.000137 0.996371 -0.062223
vn -1.000000 -0.000003 0.000491
vn -1.000000 -0.000003 0.000491
vn -0.998312 -0.000260 0.000261
vn -1.000000 -0.000517 0.000032
vn -1.000000 -0.000517 0.000032
vn 0.000130 -0.006396 0.999979
vn 0.000130 -0.006396 0.999979
vn 0.000070 0.379667 0.923293
vn 0.000129 -0.006395 0.999979
vn 0.000129 -0.006395 0.999979
vn 0.000000 -0.709538 -0.704667
vn 0.000000 -0.709538 -0.704667
vn 0.000001 -0.708340 -0.703478
vn -0.000000 0.706803 0.705022
vn -0.000000 0.706803 0.705022
vn 0.000000 0.707998 0.706214
vn 0.000000 0.707998 0.706214
vn 0.000000 0.998312 0.000000
vn 0.000000 0.998312 0.000000
vn 0.000000 0.998312 0.000000
vn 0.000000 0.998312 0.000000
vn 0.000000 0.998312 0.000000
vn 0.000000 0.998312 0.000000
vn 0.000000 0.998312 0.000000
vn 0.000000 0.998312 0.000000
vn 0.000000 0.998312 0.000000
vn 0.000000 0.998312 0.000000
vn 0.000000 0.998312 0.000000
vn 0.000000 0.998312 0.000000
usemtl Default
f 1/1/1 2/2/2 3/3/3
f 1/1/1 3/3/3 4/4/4
f 3/5/5 5/6/6 6/7/7
f 3/8/8 6/7/7 4/9/9
f 7/10/10 8/11/11 9/12/12
f 7/10/10 9/12/12 10/13/13
f 9/14/14 11/15/15 12/16/16
f 9/17/17 12/16/16 10/18/18
f 13/19/19 14/20/20 15/21/21
f 13/19/19 15/21/21 16/22/22
f 15/23/23 17/24/24 18/25/25
f 15/26/26 18/25/25 16/27/27
f 19/28/28 20/29/29 21/30/30
f 19/28/28 21/30/30 22/31/31
f 21/32/32 23/33/33 24/34/34
f 21/35/35 24/34/34 22/36/36
f 25/37/37 26/38/38 27/39/39
f 25/37/37 27/39/39 28/40/40
f 27/41/41 29/42/42 30/43/43
f 27/44/44 30/43/43 28/45/45
f 31/46/46 32/47/47 33/48/48
f 31/46/46 33/48/48 34/49/49
f 33/50/50 35/51/51 36/52/52
f 33/53/53 36/52/52 34/54/54
f 37/55/55 38/56/56 39/57/57
f 37/55/55 39/57/57 40/58/58
f 38/59/59 41/60/60 42/61/61
f 39/62/62 43/63/63 44/64/64
f 39/65/65 44/64/64 40/66/66
f 45/67/67 46/68/68 47/69/69
f 45/67/67 47/69/69 48/70/70
f 47/71/71 49/72/72 50/73/73
f 47/74/74 50/73/73 48/75/75
f 51/76/76 52/77/77 53/78/78
f 51/76/76 53/78/78 54/79/79
f 53/80/80 55/81/81 56/82/82
f 53/83/83 56/82/82 54/84/84
f 57/85/85 58/86/86 59/87/87
f 57/85/85 59/87/87 60/88/88
f 58/89/89 57/90/90 36/91/91
f 59/92/92 61/93/93 62/94/94
f 59/95/95 62/94/94 60/96/96
f 63/97/97 64/98/98 65/99/99
f 63/97/97 65/99/99 66/100/100
f 64/101/101 67/102/102 68/103/103
f 64/104/104 68/103/103 65/105/105
f 69/106/106 63/107/107 66/108/108
f 69/106/106 66/109/109 70/110/110
f 63/111/111 69/112/112 67/102/102
f 63/113/113 67/102/102 64/114/114
f 66/115/115 65/116/116 68/117/117
f 66/118/118 68/119/119 70/110/110
f 71/120/120 72/121/121 73/122/122
f 71/120/120 73/122/122 74/123/123
f 72/124/124 75/125/125 76/126/126
f 72/127/127 76/126/126 73/128/128
f 75/129/129 77/130/130 78/131/131
f 75/132/132 78/131/131 76/133/133
f 77/134/134 75/135/135 72/121/121
f 77/136/136 72/121/121 71/120/120
f 78/131/131 74/137/137 73/138/138
f 78/131/131 73/139/139 76/140/140
f 47/141/141 49/142/142 50/143/143
f 9/144/144 11/145/145 12/146/146
f 9/147/147 11/148/148 12/149/149
f 9/150/150 11/151/151 12/152/152
